<?xml version="1.0" standalone="no"?>
<!DOCTYPE svg PUBLIC "-//W3C//DTD SVG 20010904//EN"
 "http://www.w3.org/TR/2001/REC-SVG-20010904/DTD/svg10.dtd">
<svg version="1.0" xmlns="http://www.w3.org/2000/svg"
 width="1280.000000pt" height="1280.000000pt" viewBox="0 0 1280.000000 1280.000000"
 preserveAspectRatio="xMidYMid meet">
<metadata>
Created by potrace 1.15, written by Peter Selinger 2001-2017
</metadata>
<g transform="translate(0.000000,1280.000000) scale(0.100000,-0.100000)"
fill="#000000" stroke="none">
<path d="M6958 7801 l-3 -4730 -60 45 c-115 87 -278 149 -490 187 -104 19
-158 21 -405 22 -274 0 -290 -1 -414 -28 -496 -107 -1000 -387 -1405 -781
-405 -395 -606 -814 -588 -1230 13 -298 134 -540 361 -722 301 -241 688 -335
1146 -279 585 72 1179 366 1609 795 273 274 444 569 528 911 17 70 18 261 23
3659 l5 3585 40 -3 c235 -16 547 -112 833 -256 648 -326 1178 -882 1466 -1536
332 -753 372 -1530 126 -2426 -112 -408 -245 -749 -551 -1417 -66 -143 -119
-263 -119 -268 0 -6 40 -9 96 -7 l95 3 61 105 c732 1271 1083 2614 932 3570
-68 431 -249 902 -508 1323 -215 350 -376 545 -1051 1277 -580 629 -727 801
-878 1030 -171 260 -299 558 -382 885 -53 208 -76 346 -124 720 l-36 290 -153
3 -152 3 -2 -4730z"/>
</g>
</svg>
