<?xml version="1.0" standalone="no"?>
<!DOCTYPE svg PUBLIC "-//W3C//DTD SVG 20010904//EN"
 "http://www.w3.org/TR/2001/REC-SVG-20010904/DTD/svg10.dtd">
<svg version="1.0" xmlns="http://www.w3.org/2000/svg"
 width="1280.000000pt" height="1280.000000pt" viewBox="0 0 1280.000000 1280.000000"
 preserveAspectRatio="xMidYMid meet">
<metadata>
Created by potrace 1.15, written by Peter Selinger 2001-2017
</metadata>
<g transform="translate(0.000000,1280.000000) scale(0.100000,-0.100000)"
fill="#000000" stroke="none">
<path d="M5190 6554 l0 -5976 49 44 c26 24 178 162 337 307 728 665 1182 1032
1814 1466 590 406 897 651 1195 956 242 247 397 459 516 704 125 259 173 453
173 700 0 103 -6 173 -17 223 -101 442 -428 836 -882 1061 -247 123 -426 169
-682 178 -544 19 -1088 -164 -1751 -588 -68 -44 -125 -79 -128 -79 -2 0 -4
1571 -4 3490 l0 3490 -310 0 -310 0 0 -5976z m1893 -1058 c430 -127 686 -509
664 -990 -24 -506 -340 -1070 -1014 -1810 -76 -83 -314 -329 -530 -546 l-392
-395 -1 1510 0 1511 34 70 c124 260 530 575 848 660 122 32 260 29 391 -10z"/>
</g>
</svg>
