<?xml version="1.0" standalone="no"?>
<!DOCTYPE svg PUBLIC "-//W3C//DTD SVG 20010904//EN"
 "http://www.w3.org/TR/2001/REC-SVG-20010904/DTD/svg10.dtd">
<svg version="1.0" xmlns="http://www.w3.org/2000/svg"
 width="1280.000000pt" height="1280.000000pt" viewBox="0 0 1280.000000 1280.000000"
 preserveAspectRatio="xMidYMid meet">
<metadata>
Created by potrace 1.15, written by Peter Selinger 2001-2017
</metadata>
<g transform="translate(0.000000,1280.000000) scale(0.100000,-0.100000)"
fill="#000000" stroke="none">
<path d="M6747 12504 c-4 -4 -7 -2124 -7 -4712 l0 -4704 -49 36 c-126 93 -348
169 -594 203 -176 25 -632 25 -772 0 -595 -105 -1211 -423 -1656 -855 -256
-247 -417 -484 -508 -746 -75 -214 -82 -458 -19 -656 56 -176 171 -336 332
-461 363 -284 863 -374 1461 -264 438 81 885 270 1249 528 483 343 782 753
867 1189 18 96 19 186 19 2843 0 1510 3 2745 6 2745 4 0 46 -24 93 -54 135
-84 342 -203 801 -461 985 -552 1369 -809 1655 -1106 276 -286 445 -595 514
-936 48 -233 77 -654 61 -861 -40 -493 -253 -1159 -509 -1589 -34 -56 -61
-105 -61 -108 0 -3 45 -5 100 -5 l100 0 44 67 c337 524 541 1107 607 1738 15
149 15 525 0 660 -38 326 -124 627 -266 920 l-62 129 34 120 c97 349 146 711
146 1076 0 236 -18 400 -64 599 -113 484 -355 974 -703 1420 -331 425 -874
946 -1649 1584 -122 100 -259 220 -305 266 -317 322 -489 743 -530 1301 l-7
95 -161 3 c-88 1 -163 -1 -167 -4z m531 -2356 c1153 -625 1741 -1096 2246
-1797 159 -220 302 -488 370 -693 88 -266 117 -546 96 -953 -7 -137 -15 -274
-19 -302 l-6 -53 -92 128 c-303 417 -707 818 -1378 1367 -293 240 -422 359
-563 519 -414 472 -695 994 -805 1496 -34 154 -61 390 -44 390 4 0 92 -46 195
-102z"/>
</g>
</svg>
