<?xml version="1.0" standalone="no"?>
<!DOCTYPE svg PUBLIC "-//W3C//DTD SVG 20010904//EN"
 "http://www.w3.org/TR/2001/REC-SVG-20010904/DTD/svg10.dtd">
<svg version="1.0" xmlns="http://www.w3.org/2000/svg"
 width="1280.000000pt" height="1280.000000pt" viewBox="0 0 1280.000000 1280.000000"
 preserveAspectRatio="xMidYMid meet">
<metadata>
Created by potrace 1.15, written by Peter Selinger 2001-2017
</metadata>
<g transform="translate(0.000000,1280.000000) scale(0.100000,-0.100000)"
fill="#000000" stroke="none">
<path d="M7212 7885 c2 -2967 0 -4454 -7 -4451 -5 3 -55 25 -111 50 -314 140
-550 187 -940 186 -493 0 -930 -85 -1419 -277 -167 -65 -449 -207 -595 -299
-371 -232 -661 -527 -810 -824 -97 -192 -130 -342 -130 -584 0 -368 75 -596
257 -787 195 -204 435 -306 821 -349 132 -15 546 -20 682 -9 346 28 766 134
1111 279 835 351 1397 900 1494 1458 13 74 15 730 15 5073 l0 4989 -185 0
-185 0 2 -4455z m-362 -4686 c168 -27 279 -126 280 -249 1 -286 -398 -732
-1025 -1145 -456 -300 -877 -510 -1315 -655 -383 -128 -670 -173 -862 -136
-162 31 -243 85 -269 178 -17 65 -6 190 25 273 150 394 767 885 1671 1330 455
224 815 353 1112 399 107 17 295 20 383 5z"/>
</g>
</svg>
