<?xml version="1.0" standalone="no"?>
<!DOCTYPE svg PUBLIC "-//W3C//DTD SVG 20010904//EN"
 "http://www.w3.org/TR/2001/REC-SVG-20010904/DTD/svg10.dtd">
<svg version="1.0" xmlns="http://www.w3.org/2000/svg"
 width="640.000000pt" height="1280.000000pt" viewBox="0 0 640.000000 1280.000000"
 preserveAspectRatio="xMidYMid meet">
<metadata>
Created by potrace 1.15, written by Peter Selinger 2001-2017
</metadata>
<g transform="translate(0.000000,1280.000000) scale(0.100000,-0.100000)"
fill="#000000" stroke="none">
<path d="M3620 12790 c-89 -13 -385 -85 -515 -125 -169 -51 -354 -125 -540
-215 -803 -390 -1435 -1045 -1740 -1805 -128 -318 -167 -534 -145 -803 19
-232 60 -419 190 -857 73 -247 128 -464 249 -975 86 -364 236 -996 301 -1270
323 -1358 485 -2066 666 -2905 154 -718 271 -1308 378 -1905 25 -140 57 -304
71 -365 14 -60 43 -227 65 -370 98 -625 149 -828 264 -1055 42 -83 44 -86 102
-109 80 -33 198 -35 265 -5 158 73 287 349 306 654 6 101 -6 241 -58 675 -184
1553 -542 3230 -1119 5240 -195 678 -290 988 -325 1057 -56 112 -47 185 28
225 69 38 303 15 442 -43 94 -39 443 -64 727 -52 800 33 1477 345 1900 876
649 814 774 2044 297 2905 -136 243 -246 373 -584 687 -386 359 -724 534
-1055 545 -63 2 -140 0 -170 -5z"/>
</g>
</svg>
