<?xml version="1.0" standalone="no"?>
<!DOCTYPE svg PUBLIC "-//W3C//DTD SVG 20010904//EN"
 "">
<svg version="1.0" xmlns="http://www.w3.org/2000/svg"
 width="640.000000pt" height="1280.000000pt" viewBox="0 0 640.000000 1280.000000"
 preserveAspectRatio="xMidYMid meet">
<metadata>
Created by potrace 1.15, written by Peter Selinger 2001-2017
</metadata>
<g transform="translate(0.000000,1280.000000) scale(0.100000,-0.100000)"
fill="#000000" stroke="none">
<path d="M3780 12794 c-270 -52 -538 -272 -782 -643 -261 -397 -424 -880 -458
-1355 -22 -321 43 -761 250 -1681 33 -148 59 -269 58 -270 -74 -52 -860 -690
-1028 -834 -1065 -914 -1500 -1606 -1500 -2385 0 -666 287 -1332 781 -1811
207 -201 401 -339 659 -469 325 -165 655 -266 1045 -320 395 -55 959 -45 1362
24 64 11 118 18 121 16 2 -3 26 -102 53 -222 233 -1031 302 -1509 255 -1756
-58 -301 -248 -534 -565 -693 -464 -233 -1125 -221 -1393 24 -62 57 -113 146
-124 217 l-6 41 115 6 c540 31 898 422 748 818 -30 77 -76 142 -155 216 -162
153 -380 233 -633 233 -234 0 -427 -60 -597 -186 -36 -27 -84 -60 -106 -74
-65 -39 -146 -124 -188 -197 -68 -119 -96 -220 -113 -401 -9 -105 -8 -133 5
-195 56 -249 272 -467 637 -641 247 -118 493 -188 834 -238 137 -19 513 -17
655 5 694 108 1103 471 1196 1065 23 150 15 412 -20 617 -51 301 -206 1004
-297 1344 -11 40 -18 78 -17 82 2 5 66 31 143 58 376 130 655 300 891 542 146
151 223 257 308 427 330 657 150 1473 -435 1969 -456 386 -1091 539 -1775 428
l-40 -7 -12 49 c-6 26 -43 167 -82 313 -74 276 -240 922 -240 932 0 3 28 27
63 54 386 300 702 631 925 968 287 434 442 873 514 1456 21 170 17 770 -5 945
-48 362 -137 676 -268 938 -81 163 -167 285 -274 392 -138 138 -251 195 -400
200 -44 2 -91 1 -105 -1z m437 -1115 c44 -17 74 -38 123 -88 102 -103 141
-202 161 -413 55 -569 -278 -1136 -1096 -1863 -164 -146 -346 -297 -351 -292
-9 9 -82 401 -104 561 -19 136 -22 186 -17 340 16 494 155 950 395 1296 82
117 253 291 350 355 192 125 382 162 539 104z m-1078 -4026 c38 -149 291
-1152 291 -1157 0 -3 -25 -13 -55 -21 -92 -27 -246 -90 -365 -150 -608 -305
-979 -836 -929 -1330 35 -344 240 -637 619 -888 124 -82 378 -209 540 -271
102 -39 116 -42 128 -28 6 9 12 18 12 21 0 3 -24 22 -52 41 -238 161 -447 386
-543 585 -67 138 -89 228 -89 365 0 139 18 219 79 345 103 213 309 397 572
511 86 36 261 89 269 81 14 -13 614 -2405 614 -2445 0 -5 -57 -21 -127 -35
-569 -117 -1166 -81 -1722 103 -600 199 -1046 555 -1256 1003 -186 400 -213
915 -69 1347 93 279 243 516 484 764 249 256 429 398 1035 816 171 118 362
251 425 296 63 45 118 83 122 83 4 1 12 -16 17 -36z m1101 -1888 c245 -47 432
-127 610 -261 404 -304 591 -782 485 -1240 -54 -235 -207 -464 -422 -636 -115
-91 -391 -244 -408 -226 -3 3 -46 162 -96 354 -50 192 -191 726 -315 1187
-123 461 -224 841 -224 844 0 11 285 -6 370 -22z"/>
</g>
</svg>
