<?xml version="1.0" standalone="no"?>
<!DOCTYPE svg PUBLIC "-//W3C//DTD SVG 20010904//EN"
 "http://www.w3.org/TR/2001/REC-SVG-20010904/DTD/svg10.dtd">
<svg version="1.0" xmlns="http://www.w3.org/2000/svg"
 width="640.000000pt" height="1280.000000pt" viewBox="0 0 640.000000 1280.000000"
 preserveAspectRatio="xMidYMid meet">
<metadata>
Created by potrace 1.15, written by Peter Selinger 2001-2017
</metadata>
<g transform="translate(0.000000,1280.000000) scale(0.100000,-0.100000)"
fill="#000000" stroke="none">
<path d="M2630 12786 c-14 -9 -36 -15 -48 -16 -71 -1 -382 -291 -437 -408 -56
-117 -95 -347 -95 -556 0 -42 -13 -185 -30 -319 -43 -351 -60 -606 -67 -1004
-6 -366 -7 -361 31 -354 4 1 7 -31 5 -70 -3 -59 -1 -73 13 -83 14 -8 20 -7 31
8 13 17 15 10 22 -65 4 -46 7 -140 6 -209 -4 -210 32 -529 120 -1093 l32 -197
-88 -148 c-49 -81 -109 -178 -135 -217 -26 -38 -112 -176 -190 -305 -79 -129
-204 -329 -277 -445 -170 -267 -207 -343 -294 -600 -133 -394 -166 -578 -176
-970 -6 -241 1 -333 37 -500 10 -49 31 -162 45 -250 14 -88 37 -212 51 -275
70 -316 76 -337 139 -436 18 -28 66 -120 107 -205 89 -182 148 -266 221 -313
29 -19 65 -53 80 -75 27 -40 53 -51 74 -30 12 12 25 -6 67 -89 24 -47 30 -53
54 -50 33 4 39 27 18 68 -14 30 -11 35 16 25 9 -4 13 -16 10 -34 -2 -16 1 -32
7 -35 28 -17 334 -61 495 -71 73 -5 131 -15 179 -31 78 -27 212 -54 263 -54
22 0 37 6 41 15 5 14 8 14 24 -1 45 -41 329 25 707 166 103 38 196 70 205 70
9 0 20 -8 25 -17 25 -50 87 -305 126 -523 l44 -245 -8 -285 c-6 -190 -14 -315
-25 -375 -57 -309 -189 -715 -315 -965 -47 -94 -50 -96 -194 -218 -80 -68
-190 -166 -244 -217 l-99 -94 -89 -11 c-110 -13 -320 -54 -394 -77 -41 -12
-96 -16 -215 -17 -224 -1 -376 28 -455 85 -24 17 -50 29 -60 26 -29 -8 -90 34
-145 99 -73 85 -79 119 -72 425 8 430 54 582 226 748 122 118 179 143 378 166
l118 14 58 -31 c69 -37 151 -107 125 -108 -9 0 -40 21 -70 46 -79 68 -102 77
-173 72 -80 -7 -144 -36 -197 -90 -24 -24 -72 -60 -108 -80 -217 -121 -356
-424 -320 -694 6 -46 20 -114 31 -149 49 -159 225 -303 396 -325 37 -4 86 -15
108 -24 48 -18 138 -21 168 -4 12 7 69 15 127 19 89 5 117 11 186 41 267 115
394 292 394 549 0 70 -7 112 -35 211 -116 406 -189 554 -299 610 -22 11 -55
33 -73 49 -46 40 -153 97 -236 127 -63 22 -88 26 -202 26 -117 0 -137 -3 -197
-26 -135 -53 -250 -142 -358 -276 -38 -48 -88 -100 -111 -117 -66 -48 -138
-132 -227 -263 -146 -217 -201 -348 -223 -531 -19 -156 5 -260 104 -456 25
-49 68 -137 95 -195 61 -128 117 -204 222 -304 76 -71 198 -146 238 -146 9 0
35 -9 59 -21 143 -69 345 -76 578 -18 131 33 462 138 575 184 376 151 555 303
723 615 203 376 375 1129 353 1545 -3 66 -10 257 -15 425 -6 220 -14 326 -26
380 -20 90 -69 235 -118 347 l-35 81 86 4 c79 3 95 8 172 46 47 24 127 73 178
109 81 58 93 70 90 92 -5 40 -41 39 -91 -1 -120 -98 -249 -165 -333 -174 -68
-8 -64 3 9 30 37 14 47 22 47 41 0 12 -6 25 -13 28 -7 3 -53 -10 -102 -29 -48
-19 -89 -33 -89 -32 -16 27 -25 63 -19 68 4 4 60 24 123 45 63 20 164 62 223
92 115 57 156 67 64 14 -89 -51 -100 -81 -39 -107 33 -14 34 -13 85 34 29 27
120 90 203 140 163 99 242 162 404 323 208 205 297 338 320 474 19 115 20 144
4 160 -19 19 -29 19 -47 0 -13 -12 -15 6 -19 148 -3 92 -14 218 -26 292 -11
72 -28 181 -37 243 -67 468 -339 836 -689 932 -41 11 -105 21 -143 21 -37 0
-99 7 -138 14 -98 19 -329 39 -371 32 -20 -3 -43 -12 -51 -19 -11 -9 -42 -12
-102 -10 -94 4 -276 -21 -469 -64 -63 -14 -115 -24 -117 -22 -2 2 -20 68 -40
148 -76 304 -146 530 -296 958 l-78 223 62 87 c33 48 96 125 138 172 83 91
120 144 215 308 86 150 98 172 179 329 41 78 109 201 151 274 43 73 105 192
139 263 34 72 67 142 74 156 18 39 7 -79 -24 -245 -25 -134 -29 -144 -106
-292 -92 -175 -270 -428 -441 -625 -59 -68 -163 -197 -233 -288 -128 -167
-144 -202 -99 -208 18 -3 47 29 150 160 71 89 179 220 239 289 275 316 505
682 545 867 40 181 50 287 50 507 l0 215 26 11 27 10 -7 87 c-3 48 -13 137
-21 197 -15 111 -26 571 -13 538 4 -10 22 -54 40 -98 32 -76 33 -81 16 -97
-16 -16 -16 -20 -1 -65 19 -56 27 -63 70 -63 67 0 58 58 -51 313 -40 94 -85
208 -99 252 -14 44 -55 144 -91 223 -62 135 -67 152 -96 320 -63 363 -82 417
-274 770 l-145 267 6 62 c7 77 -4 95 -49 83 -22 -7 -34 -5 -45 5 -20 21 -40
19 -53 -5 -8 -14 -8 -26 1 -41 7 -14 7 -25 1 -31 -6 -6 -15 6 -26 32 -14 35
-15 48 -5 75 18 49 7 67 -39 64 -24 -2 -52 5 -82 20 -57 30 -172 39 -210 17z
m182 -82 c31 -16 34 -30 13 -58 -15 -19 -16 -19 -42 5 -60 54 -61 54 -89 28
-15 -13 -37 -46 -50 -74 -14 -27 -36 -69 -49 -92 -24 -39 -65 -191 -70 -258
-5 -58 -25 -111 -66 -170 -60 -88 -98 -168 -120 -252 -10 -42 -41 -130 -68
-197 -55 -137 -106 -284 -116 -339 -9 -48 6 -48 41 1 14 20 24 30 21 22 -50
-155 -78 -241 -85 -265 -8 -27 -10 -22 -16 40 -8 75 5 159 79 495 75 343 136
530 257 785 49 104 101 217 114 251 21 51 31 64 67 82 34 18 52 21 97 16 30
-3 67 -12 82 -20z m-106 -91 c-7 -7 -26 7 -26 19 0 6 6 6 15 -2 9 -7 13 -15
11 -17z m-233 -28 c-12 -24 -23 -35 -39 -35 -24 0 -92 -96 -166 -235 -40 -75
-50 -76 -18 0 22 50 98 172 137 219 22 27 91 86 99 86 2 0 -4 -16 -13 -35z
m285 -18 c2 -10 -3 -17 -12 -17 -10 0 -16 9 -16 21 0 24 23 21 28 -4z m125 2
c4 -16 3 -18 -9 -8 -7 6 -11 15 -8 20 8 13 11 11 17 -12z m156 -93 c-13 -27
-13 -27 -21 -6 -5 14 -4 28 3 37 19 22 32 0 18 -31z m-185 -2 c27 -33 27 -35
12 -59 -10 -15 -26 -25 -41 -25 -17 0 -32 -11 -48 -35 l-24 -36 -6 37 c-5 31
0 47 29 96 20 32 38 58 42 57 4 0 20 -16 36 -35z m324 -196 c138 -247 190
-351 217 -433 27 -79 75 -276 75 -305 0 -8 -21 23 -46 70 -26 47 -75 135 -111
197 -35 61 -86 167 -112 235 -27 68 -70 167 -95 221 -44 94 -45 99 -31 128 9
16 17 29 19 29 2 0 40 -64 84 -142z m-218 45 c0 -8 -28 -78 -62 -156 l-63
-142 -65 -32 c-36 -18 -89 -50 -117 -73 -29 -22 -53 -38 -53 -36 0 2 24 45 54
96 47 81 54 89 60 67 7 -28 34 -43 49 -28 6 6 9 40 8 77 -2 72 5 88 112 233
l40 54 19 -22 c10 -13 18 -30 18 -38z m-346 -269 c-42 -79 -77 -144 -80 -144
-2 0 9 35 25 78 27 73 41 106 92 220 l22 47 8 -29 c7 -24 -3 -49 -67 -172z
m374 131 c-10 -39 -8 -45 173 -410 179 -360 250 -525 270 -628 9 -49 5 -261
-7 -344 -4 -26 -12 -43 -19 -43 -17 0 -21 -15 -35 -114 -6 -44 -11 -81 -13
-82 -1 -1 -3 85 -4 192 -3 190 -3 197 -48 391 -104 450 -151 620 -196 701 -24
42 -53 98 -66 124 -27 54 -36 62 -63 53 -14 -4 -20 -15 -20 -34 0 -28 12 -54
78 -166 43 -71 66 -156 203 -730 l34 -140 -1 -265 c-2 -294 6 -240 -97 -646
-69 -268 -111 -347 -397 -749 -63 -88 -165 -238 -227 -333 -93 -143 -113 -169
-118 -150 -74 325 -173 885 -220 1254 l-24 191 24 164 c34 224 48 275 160 569
174 454 215 539 328 670 74 86 119 124 201 170 32 18 60 39 63 47 7 19 -15 43
-41 43 -38 0 -171 -97 -246 -178 -95 -103 -150 -187 -208 -318 -80 -179 -279
-714 -295 -789 -17 -84 -23 -69 -32 85 -8 113 -5 127 57 342 26 89 34 107 52
110 12 2 28 17 38 38 10 19 28 37 39 40 29 7 27 3 114 245 67 187 80 215 118
253 64 67 157 138 228 175 42 23 65 41 67 54 2 12 11 23 20 25 11 3 37 47 67
116 27 61 50 110 51 109 2 -1 -2 -20 -8 -42z m-767 -226 c-5 -13 -10 -19 -10
-12 -1 15 10 45 15 40 3 -2 0 -15 -5 -28z m-40 -155 c-16 -66 -37 -157 -46
-204 -19 -99 -25 -123 -31 -117 -4 4 29 193 46 260 24 92 53 187 57 183 2 -2
-9 -57 -26 -122z m1261 -346 c57 -114 77 -177 103 -323 3 -16 -14 24 -38 90
-25 66 -65 173 -90 238 -25 64 -43 117 -41 117 2 0 32 -55 66 -122z m242 -527
c23 -65 25 -76 12 -89 -16 -17 -18 -14 -36 83 -6 33 -14 69 -17 80 -13 48 17
-5 41 -74z m-1627 -3 c-2 -13 -4 -5 -4 17 -1 22 1 32 4 23 2 -10 2 -28 0 -40z
m10 -125 c-2 -21 -4 -6 -4 32 0 39 2 55 4 38 2 -18 2 -50 0 -70z m1463 -98
c27 -88 60 -250 60 -296 0 -12 -7 -15 -24 -12 -27 6 -39 -11 -50 -67 -3 -19
-13 -68 -22 -107 -14 -65 -18 -73 -40 -73 -21 0 -27 -12 -65 -132 -137 -439
-340 -980 -494 -1318 -67 -149 -75 -185 -40 -185 15 0 32 26 77 125 135 295
259 606 414 1040 40 113 73 201 73 195 2 -27 -120 -574 -133 -600 -8 -16 -49
-115 -91 -220 -101 -249 -167 -388 -244 -510 -72 -114 -303 -444 -312 -445 -6
0 -39 99 -39 118 0 5 20 45 45 87 60 101 142 266 195 390 23 55 67 149 97 208
115 231 225 489 308 726 66 190 184 725 227 1026 12 85 23 154 24 152 2 -2 17
-48 34 -102z m-1420 -284 c11 -107 6 -270 -8 -256 -14 14 -27 231 -19 302 5
41 11 73 12 71 2 -2 8 -54 15 -117z m1484 -413 c-3 -427 -11 -476 -112 -693
-36 -77 -77 -169 -92 -205 -36 -85 -122 -261 -126 -257 -2 1 12 72 31 157 19
85 71 324 115 530 73 339 178 790 184 790 1 0 1 -145 0 -322z m-307 33 c-7
-30 -17 -56 -24 -58 -7 -3 -4 20 10 62 25 77 32 75 14 -4z m386 -106 c4 -70 3
-86 -3 -55 -9 45 -13 167 -6 159 2 -2 6 -49 9 -104z m-1492 -82 c47 -317 123
-734 196 -1064 l16 -75 -58 -95 c-31 -52 -59 -96 -61 -98 -8 -9 -13 7 -20 67
-5 48 -4 62 6 60 29 -7 35 29 16 104 -55 221 -67 289 -76 458 -11 197 -23 324
-46 484 -11 76 -14 137 -9 203 4 52 10 92 12 89 3 -3 14 -63 24 -133z m1496
-80 c-3 -10 -5 -2 -5 17 0 19 2 27 5 18 2 -10 2 -26 0 -35z m-710 -389 c-25
-60 -97 -214 -161 -341 -64 -128 -116 -242 -116 -252 0 -11 10 -27 21 -35 21
-14 20 -17 -82 -156 l-104 -141 -32 122 -32 121 101 156 c142 218 439 644 445
638 2 -2 -16 -52 -40 -112z m-21 -236 c-43 -94 -135 -275 -135 -267 -1 11 157
339 163 339 3 0 -9 -33 -28 -72z m233 -373 c-29 -117 -38 -138 -112 -259 -157
-259 -235 -368 -315 -443 -42 -40 -81 -68 -85 -64 -5 5 40 76 99 157 215 297
358 534 419 697 10 26 20 46 22 44 2 -3 -11 -62 -28 -132z m-723 -298 l22 -82
-57 -82 c-31 -45 -58 -83 -61 -83 -3 0 -18 36 -33 80 l-26 80 62 88 c34 49 64
87 67 85 3 -2 15 -41 26 -86z m170 -26 c-57 -101 -76 -122 -76 -84 0 13 126
193 135 193 1 0 -25 -49 -59 -109z m-344 -221 l28 -79 -98 -149 c-53 -82 -153
-239 -222 -349 -110 -176 -128 -200 -150 -199 -19 1 -33 -11 -62 -54 -74 -108
-248 -465 -348 -718 -29 -73 -54 -131 -56 -129 -5 5 33 148 56 212 29 76 223
475 302 620 79 142 220 365 371 585 67 96 121 184 121 195 1 15 -5 20 -24 20
-20 0 -38 -19 -95 -101 -98 -140 -110 -155 -84 -109 42 74 219 335 228 335 3
0 18 -36 33 -80z m230 58 c5 -30 -29 -95 -53 -101 -10 -3 -26 -21 -36 -41 -19
-40 -33 -47 -33 -15 0 21 98 178 112 179 4 0 8 -10 10 -22z m56 -183 l23 -76
-53 -73 c-29 -41 -56 -72 -59 -71 -3 2 -14 31 -24 63 l-18 60 49 86 c27 47 51
86 54 86 3 0 15 -34 28 -75z m-241 -73 c-48 -56 -192 -333 -276 -532 -32 -76
-307 -570 -317 -570 -5 0 10 31 203 403 115 222 151 302 145 314 -7 12 15 55
92 177 145 229 160 250 164 237 2 -7 -3 -20 -11 -29z m87 -174 l17 -46 -70
-104 c-38 -56 -86 -119 -105 -137 -20 -19 -36 -44 -36 -56 0 -17 -241 -417
-272 -450 -40 -43 159 357 342 688 51 93 96 165 100 160 3 -4 14 -29 24 -55z
m169 -61 c-37 -55 -53 -69 -53 -46 0 11 83 109 88 104 2 -1 -14 -28 -35 -58z
m135 -132 c22 -66 70 -208 107 -315 73 -216 181 -581 216 -734 21 -95 21 -100
4 -112 -12 -9 -16 -21 -13 -39 5 -21 1 -28 -20 -36 -13 -5 -27 -8 -29 -6 -2 3
-25 80 -52 173 -27 93 -92 279 -146 414 -54 135 -115 301 -137 370 -22 69 -50
158 -64 199 -13 40 -20 79 -17 85 39 62 97 136 103 129 4 -4 26 -62 48 -128z
m-235 16 c3 -14 -37 -80 -131 -218 -231 -338 -522 -746 -522 -733 0 15 183
318 366 608 105 165 254 362 275 362 4 0 9 -9 12 -19z m80 -264 c27 -89 91
-268 142 -397 51 -129 100 -255 108 -280 19 -52 97 -324 97 -337 0 -4 -28 -19
-62 -32 -97 -37 -277 -125 -343 -168 -83 -55 -224 -190 -297 -287 -66 -87
-140 -235 -179 -355 -13 -40 -31 -76 -39 -79 -26 -10 -30 -25 -29 -107 0 -54
-8 -110 -24 -175 -94 -364 6 -600 338 -799 39 -23 101 -62 140 -87 88 -56 166
-86 230 -90 432 -25 744 -4 749 51 2 17 -47 33 -138 46 -51 6 -96 18 -104 26
-9 9 -23 12 -36 8 -49 -16 -87 -17 -104 -2 -9 8 -30 22 -47 30 -28 15 -22 16
136 17 145 0 168 2 173 16 4 9 4 25 1 35 -6 18 -21 19 -225 19 l-218 0 -61 51
c-66 55 -260 306 -312 402 -45 84 -128 347 -135 428 -7 66 -6 69 14 69 28 0
37 20 52 109 38 227 128 384 293 513 99 76 268 190 275 184 2 -2 21 -78 42
-169 56 -242 112 -400 250 -692 28 -60 69 -153 92 -205 22 -52 77 -174 123
-270 92 -192 149 -342 280 -739 69 -210 84 -265 73 -272 -77 -50 -535 -159
-670 -160 -188 -1 -367 24 -573 79 -38 11 -117 32 -175 47 -122 32 -188 71
-420 249 -168 128 -288 237 -416 377 l-90 99 -22 93 c-47 195 -63 327 -69 542
-9 320 15 496 101 742 37 105 146 347 153 339 2 -2 -33 -126 -77 -275 -45
-150 -79 -279 -76 -287 3 -9 15 -14 28 -12 20 3 32 39 133 393 l111 390 160
230 c88 127 216 309 285 406 68 96 165 237 214 312 50 75 92 136 95 136 3 1
27 -72 53 -162z m-802 -306 c-171 -340 -308 -657 -366 -846 -42 -139 -137
-407 -141 -402 -2 2 -1 34 3 71 5 55 10 70 24 73 20 6 31 38 48 133 34 204
160 561 306 866 68 142 74 151 97 147 21 -4 29 3 58 51 19 30 36 54 38 52 2
-2 -29 -67 -67 -145z m-329 -108 c-60 -120 -153 -390 -181 -533 -29 -142 -52
-363 -58 -567 -5 -164 -8 -183 -23 -183 -36 0 -40 -22 -34 -166 5 -112 4 -137
-6 -127 -10 9 -11 70 -7 275 6 283 26 465 71 651 53 218 233 713 252 694 3 -3
-3 -22 -14 -44z m329 -175 c-102 -235 -135 -304 -179 -373 -29 -44 -52 -77
-52 -74 0 21 235 489 245 489 3 0 -4 -19 -14 -42z m2396 -264 c-3 -3 -12 -4
-19 -1 -8 3 -5 6 6 6 11 1 17 -2 13 -5z m237 -62 c67 -31 165 -97 216 -145 75
-70 139 -147 134 -160 -3 -9 6 -23 24 -36 79 -56 205 -335 273 -604 26 -103
30 -136 30 -250 -1 -268 -28 -332 -47 -114 -14 150 -39 270 -66 314 -10 18
-33 87 -49 153 -16 66 -41 150 -54 186 -26 69 -29 82 -19 71 11 -11 44 13 44
32 0 26 -55 127 -96 178 -49 59 -137 125 -214 159 -36 15 -90 49 -120 74 -30
26 -93 73 -140 105 -115 79 -115 78 -45 73 40 -3 83 -15 129 -36z m181 -6 c6
-7 35 -26 65 -42 55 -29 210 -170 210 -190 0 -9 -42 -29 -45 -21 0 1 -31 36
-68 78 -37 42 -102 103 -144 135 -104 77 -103 76 -63 63 19 -6 40 -17 45 -23z
m-573 -5 c30 -10 72 -28 94 -40 36 -19 37 -20 9 -15 -16 4 -70 19 -120 34 -49
16 -99 31 -110 33 -11 3 1 5 26 6 25 0 71 -7 101 -18z m-352 -6 c-30 -8 -69
-14 -86 -15 -40 0 -78 -29 -69 -52 12 -32 14 -32 228 6 68 12 99 13 137 5 45
-10 49 -13 52 -42 3 -37 -3 -35 239 -62 80 -8 170 -23 200 -33 48 -15 60 -25
107 -87 163 -216 266 -486 318 -830 20 -134 25 -489 11 -678 l-9 -107 -90
-120 c-98 -133 -188 -216 -330 -307 -52 -34 -88 -64 -88 -73 0 -12 -48 -37
-167 -87 -93 -39 -177 -74 -189 -77 -19 -6 -24 5 -61 126 -22 73 -66 223 -98
333 -32 110 -117 382 -191 605 -73 223 -169 531 -213 686 -80 283 -191 696
-191 713 0 28 379 109 510 109 30 0 27 -2 -20 -13z m-550 -111 c0 -44 268
-987 349 -1228 34 -99 57 -176 52 -170 -4 5 -38 79 -74 164 -36 85 -88 203
-116 262 -135 289 -188 434 -242 676 -37 168 -39 185 -25 201 9 10 16 25 16
34 0 19 -29 36 -50 29 -10 -3 -12 -1 -5 6 6 6 26 15 45 20 44 13 50 13 50 6z
m-161 -67 c-2 -2 -37 -25 -76 -50 -48 -31 -73 -42 -73 -32 0 8 -7 18 -16 23
-13 7 3 17 67 44 49 21 88 32 93 27 5 -5 8 -10 5 -12z m-1462 -204 c-122 -289
-158 -477 -159 -818 0 -196 16 -374 47 -522 7 -35 10 -63 6 -63 -15 0 -32 46
-54 156 -44 209 -67 434 -67 649 0 125 1 134 41 255 23 69 48 130 56 137 8 6
25 51 37 100 33 128 47 163 67 163 10 0 27 14 39 31 38 53 34 23 -13 -88z
m3452 25 c26 -57 61 -173 61 -201 0 -6 -20 30 -44 79 -25 49 -56 107 -69 129
-18 28 -22 42 -14 47 26 17 39 5 66 -54z m-2390 -14 c-46 -36 -117 -97 -156
-136 -40 -39 -73 -66 -73 -62 0 17 174 182 235 223 91 61 88 49 -6 -25z m191
52 c0 -2 -17 -16 -37 -31 l-38 -27 33 31 c30 29 42 37 42 27z m2111 -555 c21
-55 30 -99 35 -175 7 -111 16 -146 37 -146 18 0 37 -144 37 -280 0 -101 -1
-104 -45 -198 -25 -52 -47 -93 -49 -91 -2 2 0 67 4 144 10 173 -3 410 -30 575
-22 130 -70 324 -95 384 -8 20 -15 39 -14 43 1 12 87 -172 120 -256z m-2592
-16 c-27 -228 -19 -484 15 -510 7 -6 28 -44 45 -85 46 -112 100 -198 213 -342
156 -198 142 -178 123 -178 -38 0 -223 158 -252 215 -9 16 -31 74 -49 128 -38
111 -49 130 -75 122 -35 -11 -75 173 -87 395 l-7 135 39 97 c22 54 41 96 41
95 1 -1 -2 -33 -6 -72z m2920 -179 c6 -25 11 -78 11 -120 0 -41 4 -76 8 -78 5
-1 12 -43 16 -91 6 -80 5 -87 -10 -79 -9 5 -24 8 -33 5 -14 -3 -16 18 -18 202
-1 113 2 205 6 205 5 0 14 -20 20 -44z m-3028 -296 c26 -176 91 -325 221 -513
11 -16 18 -30 16 -33 -3 -2 -25 9 -50 25 -37 24 -45 34 -41 51 4 16 -10 36
-59 88 -141 145 -190 335 -136 520 l23 77 7 -70 c4 -38 12 -104 19 -145z
m3114 -303 c-9 -40 -23 -83 -31 -97 -10 -16 -13 -18 -8 -5 4 11 17 62 28 113
12 51 23 86 24 77 2 -9 -4 -49 -13 -88z m-228 61 c-3 -8 -6 -5 -6 6 -1 11 2
17 5 13 3 -3 4 -12 1 -19z m130 -120 c-63 -189 -108 -271 -193 -359 -43 -43
-79 -77 -81 -75 -6 5 33 70 113 186 77 114 141 233 169 320 10 30 20 50 22 43
2 -6 -11 -58 -30 -115z m-3827 -196 c26 -75 50 -146 55 -156 6 -13 5 -17 -2
-13 -15 9 -73 149 -88 212 -39 154 -26 138 35 -43z m3560 53 c-20 -46 -194
-269 -246 -315 -16 -14 -8 -1 18 30 56 68 176 231 212 288 34 54 40 54 16 -3z
m-2485 -139 c27 -13 77 -31 110 -41 118 -34 337 -124 329 -136 -8 -14 -111
-10 -189 6 -67 14 -175 62 -243 108 -54 36 -215 171 -219 184 -2 6 33 -13 79
-43 46 -30 105 -65 133 -78z m-976 20 c15 -57 6 -56 -13 0 -18 55 -19 62 -7
49 5 -6 14 -28 20 -49z m151 -143 c30 -32 43 -48 29 -35 -14 12 -34 22 -45 22
-15 0 -24 10 -31 35 -6 19 -10 35 -9 35 1 0 26 -26 56 -57z m310 -277 c210
-168 374 -276 418 -276 8 0 13 -2 10 -5 -3 -3 -29 0 -59 7 -54 12 -188 88
-299 171 -65 48 -209 185 -253 242 l-32 40 50 -43 c28 -24 102 -85 165 -136z
m-280 146 c0 -13 161 -187 222 -239 31 -26 55 -49 54 -51 -2 -1 -18 6 -37 15
-19 9 -51 18 -73 19 -42 2 -45 6 -115 124 -47 79 -73 140 -60 140 5 0 9 -4 9
-8z m3150 -11 c0 -5 -15 -20 -32 -32 l-33 -22 29 31 c32 34 36 37 36 23z
m-2835 -411 c24 -6 64 -30 100 -62 34 -29 105 -82 158 -117 54 -35 96 -65 95
-66 -2 -1 -44 5 -95 13 -90 16 -92 17 -95 45 -3 28 -9 32 -98 61 -128 43 -122
39 -204 148 l-27 37 63 -24 c35 -14 81 -29 103 -35z m1949 -44 c3 -13 9 -31
12 -40 5 -13 -1 -16 -32 -16 -22 0 -96 -20 -166 -44 -119 -42 -222 -67 -328
-81 l-45 -5 55 29 c30 17 78 38 105 47 28 9 91 35 140 57 83 37 197 74 236 76
10 1 19 -9 23 -23z m-1598 -62 c80 -43 191 -130 180 -141 -11 -11 -334 180
-335 198 -2 16 72 -12 155 -57z m472 -34 c89 0 162 -4 162 -9 0 -11 -231 -88
-293 -96 l-48 -7 -65 65 c-35 36 -64 67 -64 69 0 2 33 -1 73 -8 39 -7 145 -13
235 -14z m526 -20 c-13 -13 -186 -73 -289 -100 -44 -12 -114 -23 -155 -26
l-75 -5 64 26 c35 14 100 42 145 63 71 32 93 38 181 43 55 3 109 6 120 7 12 1
16 -1 9 -8z m-9 -100 c-3 -5 -1 -18 4 -28 9 -18 3 -20 -87 -35 -53 -9 -121
-19 -149 -23 -29 -3 -56 -10 -59 -15 -6 -10 -24 -3 -24 10 0 4 25 13 55 20 30
7 99 28 153 46 108 37 116 39 107 25z m-750 -1215 c33 -9 94 -33 135 -53 l75
-37 -104 -8 c-84 -7 -112 -6 -145 7 -69 25 -152 36 -204 26 -56 -10 -194 -60
-275 -99 -66 -32 -68 -29 -12 21 79 70 197 131 290 151 48 11 186 6 240 -8z
m1620 -202 c-20 -235 -68 -477 -150 -758 -59 -204 -63 -213 -61 -148 1 61 -14
84 -40 62 -10 -8 -36 -54 -60 -104 -23 -49 -48 -99 -56 -109 -33 -43 -10 40
35 130 99 195 198 470 266 736 22 84 42 171 46 193 16 102 29 100 20 -2z
m-1297 -2 c64 -69 132 -217 148 -321 l6 -45 -40 61 c-22 34 -61 77 -86 97 -25
19 -64 62 -86 95 -22 32 -60 78 -85 101 l-45 41 81 0 c76 0 82 -2 107 -29z
m-890 -103 c-115 -114 -166 -197 -198 -326 -15 -60 -26 -83 -50 -105 -17 -15
-37 -45 -45 -65 -21 -56 -18 -16 5 74 23 89 66 212 103 294 20 45 37 64 88
100 67 48 148 97 163 99 4 1 -25 -32 -66 -71z m573 25 c12 -15 12 -16 -4 -10
-10 4 -40 7 -65 8 -39 1 -43 2 -22 9 42 13 77 11 91 -7z m270 -193 c30 -54 30
-54 4 -25 -33 38 -61 89 -45 83 6 -2 25 -28 41 -58z m-316 40 c48 0 116 -51
201 -151 41 -49 81 -89 89 -89 14 0 35 -78 35 -129 0 -24 -25 -101 -33 -101
-1 0 -3 27 -4 60 -2 116 -107 281 -209 331 -110 53 -251 3 -308 -109 -24 -48
-87 -212 -102 -267 l-8 -30 -4 35 c-6 55 16 249 37 324 25 89 49 114 126 125
33 5 80 8 104 5 24 -2 58 -4 76 -4z m243 -78 c23 -34 10 -26 -38 25 -40 42
-41 44 -11 22 19 -14 41 -35 49 -47z m-1051 1 c-44 -84 -93 -294 -107 -461
-18 -202 26 -595 78 -705 16 -34 39 -93 52 -132 28 -89 89 -220 129 -279 18
-25 29 -46 26 -46 -19 0 -103 70 -170 142 -72 77 -85 98 -190 313 -144 293
-159 342 -152 495 9 199 89 376 290 642 52 69 70 82 44 31z m412 -50 c-90
-188 -75 -500 36 -757 19 -44 33 -82 31 -84 -2 -2 -20 0 -40 4 -41 7 -82 51
-134 144 -79 143 -82 404 -7 593 21 52 39 78 78 112 29 25 54 45 58 45 3 0 -7
-26 -22 -57z m1021 -143 c65 -222 65 -333 0 -475 -33 -70 -99 -142 -183 -196
-64 -41 -203 -99 -238 -99 -19 0 -17 5 21 37 188 161 350 532 350 799 0 48 2
85 4 83 2 -2 23 -69 46 -149z m-561 120 c106 -54 184 -228 152 -340 -6 -19 -9
-10 -14 40 -9 82 -50 167 -96 197 -18 13 -56 26 -83 29 -46 6 -47 8 -28 21 24
17 26 36 5 53 -13 11 -28 7 -85 -18 -72 -32 -94 -31 -39 2 68 40 131 45 188
16z m418 -165 c5 -69 2 -93 -20 -165 -45 -146 -194 -366 -295 -433 -63 -43
-61 -27 3 24 109 86 210 230 251 356 14 43 20 115 24 318 l1 60 15 -40 c8 -22
18 -76 21 -120z m-627 5 c-47 -93 -64 -182 -50 -255 12 -64 50 -132 99 -179
27 -26 35 -28 82 -24 l53 5 -23 -18 c-27 -22 -54 -24 -102 -8 -47 16 -72 41
-108 108 -37 71 -57 175 -47 253 6 50 14 66 59 118 29 33 55 60 60 60 4 0 -6
-27 -23 -60z m209 2 c46 -34 65 -69 69 -132 6 -78 -1 -99 -42 -142 -43 -44
-85 -53 -153 -33 -50 15 -51 17 -63 65 -17 73 0 153 52 239 20 32 23 33 67 27
25 -3 57 -14 70 -24z m134 -261 c-8 -32 -63 -91 -104 -111 -38 -20 -149 -29
-149 -12 0 4 29 7 65 7 56 1 69 5 102 31 21 17 49 47 62 67 28 42 31 45 24 18z
m98 -68 c-34 -67 -79 -117 -133 -144 -63 -32 -60 -22 17 55 40 41 88 96 106
122 42 62 49 42 10 -33z m-559 -53 c29 -65 88 -139 127 -160 l35 -17 -28 -18
c-35 -23 -66 -10 -102 44 -36 55 -74 164 -73 209 0 35 1 36 11 12 5 -14 19
-45 30 -70z m1672 -141 c-108 -257 -255 -470 -393 -568 -38 -27 -41 -14 -5 20
48 44 206 242 267 334 32 50 80 133 106 187 25 53 47 95 49 93 2 -1 -9 -31
-24 -66z m-1399 -79 c-67 -25 -87 -25 -55 0 16 12 40 19 65 19 l40 -1 -50 -18z
m1036 -114 c-24 -25 -65 -59 -90 -76 -36 -25 -29 -16 34 44 86 81 127 105 56
32z m-950 4 c-13 -11 -32 -20 -44 -20 -26 0 -15 11 26 26 44 16 45 16 18 -6z
m1033 -117 c-93 -117 -134 -164 -217 -250 -61 -62 -88 -97 -84 -107 11 -29
-183 -113 -498 -216 -297 -97 -377 -114 -530 -114 -137 -1 -206 13 -272 54
-34 20 -114 123 -154 195 l-22 40 29 -27 c37 -34 178 -92 291 -120 230 -57
617 4 895 142 106 53 311 192 383 260 68 64 208 188 214 189 2 1 -14 -20 -35
-46z m-1687 -122 c146 -103 264 -150 463 -183 97 -16 445 -15 529 1 34 7 65
10 67 8 3 -2 -64 -19 -148 -38 -133 -29 -170 -34 -278 -33 -111 1 -142 6 -282
42 -309 80 -411 139 -483 282 l-18 35 24 -21 c13 -11 70 -53 126 -93z m1110
-45 c-65 -50 -345 -103 -407 -77 -23 9 -22 10 15 10 23 1 68 8 100 17 45 12
231 50 305 63 3 0 -3 -6 -13 -13z m-788 -223 c238 -61 353 -67 524 -28 66 14
121 24 123 22 8 -8 -216 -65 -335 -87 -187 -33 -322 -24 -478 32 -56 20 -81
38 -53 38 6 0 10 11 10 24 0 18 -16 34 -70 70 -38 25 -70 48 -70 50 0 3 39
-14 87 -36 54 -25 153 -57 262 -85z m-309 6 l25 -20 -32 16 c-18 8 -33 18 -33
20 0 10 16 4 40 -16z"/>
</g>
</svg>
