<?xml version="1.0" standalone="no"?>
<!DOCTYPE svg PUBLIC "-//W3C//DTD SVG 20010904//EN"
 "http://www.w3.org/TR/2001/REC-SVG-20010904/DTD/svg10.dtd">
<svg version="1.0" xmlns="http://www.w3.org/2000/svg"
 width="1242.000000pt" height="1280.000000pt" viewBox="0 0 1242.000000 1280.000000"
 preserveAspectRatio="xMidYMid meet">
<metadata>
Created by potrace 1.15, written by Peter Selinger 2001-2017
</metadata>
<g transform="translate(0.000000,1280.000000) scale(0.100000,-0.100000)"
fill="#000000" stroke="none">
<path d="M5218 12787 c-78 -30 -138 -74 -254 -191 -333 -334 -575 -787 -694
-1300 -49 -213 -76 -439 -105 -906 -9 -140 -18 -265 -21 -277 l-4 -23 -2070 0
-2070 0 0 -3772 c1 -4954 12 -5952 71 -6226 28 -133 99 -117 128 28 29 146 33
328 38 1608 l5 1312 2516 -2 2516 -3 38 -220 c85 -488 111 -706 129 -1076 26
-521 -42 -788 -256 -1004 -172 -174 -390 -279 -650 -315 -44 -6 -150 -11 -235
-11 -280 1 -444 47 -568 160 -49 45 -43 67 26 97 217 96 317 163 428 290 119
136 181 241 210 354 28 109 -2 269 -78 413 -49 94 -182 222 -285 275 -267 137
-578 102 -787 -89 -121 -111 -212 -258 -262 -426 -23 -74 -27 -108 -28 -218
-1 -142 14 -222 65 -348 148 -367 556 -653 1044 -732 117 -19 367 -19 476 0
426 74 781 328 968 694 120 234 144 384 123 756 -23 395 -62 700 -148 1157
-24 131 -44 239 -44 241 0 2 1322 7 2938 10 1615 4 3083 12 3262 17 530 16
725 36 765 80 40 45 -17 76 -175 96 -271 34 -512 37 -3518 41 -1641 2 -2982 8
-2980 13 2 4 113 122 247 261 262 273 371 401 486 574 98 146 137 231 188 410
l43 150 954 7 c1763 12 3392 28 3795 38 795 20 993 47 971 133 -8 35 -50 56
-145 73 -98 18 -902 36 -1469 32 -226 -2 -412 -1 -411 2 0 3 99 54 219 113
255 126 377 203 475 301 118 117 209 274 268 463 70 222 73 302 12 317 -73 19
-132 -66 -185 -268 -86 -326 -370 -609 -700 -698 -165 -44 -361 -26 -480 44
-205 122 -362 363 -445 683 -18 71 -85 511 -85 561 0 2 579 5 1288 7 1307 4
1448 8 1572 43 64 18 90 38 90 69 0 59 -88 87 -330 105 -85 6 -666 13 -1392
17 -687 3 -1248 9 -1248 12 0 19 75 433 95 526 59 272 147 505 236 622 69 92
202 178 344 223 109 34 313 39 425 11 117 -29 201 -71 264 -131 60 -57 79 -92
74 -140 -5 -50 -41 -71 -136 -80 -149 -15 -229 -72 -304 -217 -88 -167 -99
-295 -37 -399 45 -75 168 -199 249 -252 185 -121 380 -108 560 37 119 96 192
205 226 341 24 96 15 241 -21 340 -51 139 -97 203 -267 376 -87 88 -158 163
-158 166 0 4 269 8 598 11 362 3 622 9 661 16 82 14 147 43 156 70 21 66 -39
90 -275 110 -334 29 -846 34 -3923 40 l-3169 6 139 175 c385 486 510 686 723
1163 l44 97 2345 0 c3587 0 4085 14 4116 111 21 65 -102 89 -555 110 -153 8
-1207 13 -3031 16 l-2797 5 4 36 c14 131 36 585 35 729 -1 275 -36 542 -106
808 -133 505 -383 997 -561 1101 -53 31 -134 40 -186 21z m342 -1046 c75 -28
120 -68 157 -138 54 -102 67 -168 67 -358 0 -328 -81 -607 -264 -901 -91 -148
-156 -193 -305 -214 -102 -14 -779 -48 -783 -38 -6 12 78 438 113 571 83 321
201 596 347 809 106 156 234 248 388 283 86 19 209 13 280 -14z m-1400 -1933
c6 -24 17 -65 25 -93 56 -209 78 -373 65 -482 -27 -215 -128 -340 -523 -646
l-227 -177 -1630 0 -1630 0 0 720 0 720 1955 0 1954 0 11 -42z m952 -5 c-70
-83 -344 -348 -423 -410 -93 -73 -160 -107 -193 -99 -31 8 -61 57 -75 124 -6
29 -11 138 -11 242 l0 190 371 0 371 0 -40 -47z m-1913 -1650 c-8 -10 -83
-101 -168 -203 -346 -417 -516 -670 -707 -1052 l-84 -168 -1000 0 -1000 0 0
720 0 720 1486 0 c1407 0 1486 -1 1473 -17z m6181 11 c0 -3 -53 -67 -118 -142
-254 -295 -325 -393 -426 -591 -102 -199 -160 -374 -176 -533 -9 -93 -15 -101
-94 -118 -150 -32 -272 -35 -1566 -35 -964 0 -1341 4 -1475 13 -540 39 -656
100 -724 378 -55 223 -124 723 -119 859 l3 80 35 17 c20 10 92 24 162 32 134
16 607 35 953 39 488 5 3545 7 3545 1z m-4926 -293 c56 -61 113 -350 190 -960
l23 -183 -601 5 c-683 6 -856 19 -856 64 0 69 550 602 965 934 197 158 242
181 279 140z m-2334 -2141 l0 -760 -940 0 -940 0 0 760 0 760 940 0 940 0 0
-760z m1970 756 c0 -2 -75 -98 -167 -214 -93 -115 -190 -246 -217 -291 -58
-96 -108 -225 -131 -336 -15 -75 -45 -353 -61 -577 l-7 -98 -475 0 -475 0 6
218 c10 387 63 588 277 1047 56 121 106 228 111 238 9 16 47 17 574 17 311 0
565 -2 565 -4z m4554 -13 c3 -10 17 -72 31 -137 64 -299 190 -551 403 -807
175 -209 310 -312 595 -451 114 -56 207 -105 207 -108 0 -3 -708 -4 -1574 -2
l-1573 2 -5 173 c-8 256 -58 453 -178 705 -73 153 -160 278 -323 464 -81 92
-147 170 -147 173 0 3 576 5 1279 5 1210 0 1280 -1 1285 -17z m-3233 -683 c64
-21 148 -54 187 -74 163 -82 376 -296 503 -505 39 -65 74 -163 66 -186 -14
-36 -205 -55 -560 -55 -313 0 -383 8 -433 52 -40 35 -53 75 -89 268 -57 313
-48 481 27 521 69 37 138 32 299 -21z m-641 -5 c45 -23 71 -85 104 -240 19
-92 96 -539 96 -559 0 -14 -45 -16 -411 -16 -607 0 -638 8 -627 172 10 154
167 366 372 503 94 62 150 88 261 120 138 40 162 42 205 20z m-2548 -1072 c8
-10 75 -110 148 -223 200 -309 311 -443 529 -634 138 -121 243 -198 541 -396
135 -89 249 -166 255 -171 5 -5 -731 -9 -1723 -9 l-1732 0 0 725 0 725 983 0
c925 0 985 -1 999 -17z m1112 2 c86 -7 157 -27 218 -63 62 -35 214 -169 283
-247 113 -129 360 -332 472 -389 65 -32 83 -33 83 -3 0 22 -37 73 -173 239
-91 111 -157 207 -206 301 -79 151 -68 159 238 168 323 10 769 10 775 1 3 -5
19 -117 36 -250 44 -347 85 -638 125 -871 19 -112 35 -212 35 -222 0 -16 -21
-17 -352 -13 -469 6 -613 19 -820 70 -201 50 -403 143 -620 286 -92 61 -154
112 -244 202 -238 239 -499 583 -534 705 -7 27 -5 33 13 45 68 43 378 62 671
41z m2836 -137 c0 -84 -5 -181 -10 -215 -27 -162 -101 -351 -187 -471 -60 -84
-182 -206 -264 -264 -63 -44 -319 -183 -319 -174 0 3 -22 140 -49 303 -69 417
-119 746 -127 829 l-7 71 34 15 c85 40 256 54 672 56 l257 2 0 -152z"/>
</g>
</svg>
