<?xml version="1.0" standalone="no"?>
<!DOCTYPE svg PUBLIC "-//W3C//DTD SVG 20010904//EN"
 "http://www.w3.org/TR/2001/REC-SVG-20010904/DTD/svg10.dtd">
<svg version="1.0" xmlns="http://www.w3.org/2000/svg"
 width="1280.000000pt" height="640.000000pt" viewBox="0 0 1280.000000 640.000000"
 preserveAspectRatio="xMidYMid meet">
<metadata>
Created by potrace 1.15, written by Peter Selinger 2001-2017
</metadata>
<g transform="translate(0.000000,640.000000) scale(0.100000,-0.100000)"
fill="#000000" stroke="none">
<path d="M5910 4814 c-10 -11 -9 -34 4 -106 23 -131 46 -293 46 -323 l0 -25
-1247 0 c-687 0 -1757 3 -2380 7 l-1132 6 -7 41 c-12 77 -56 178 -94 217 -52
55 -94 54 -156 -3 -44 -40 -113 -164 -129 -230 l-7 -28 -322 0 c-176 0 -358
-3 -403 -7 l-83 -6 0 -1042 0 -1042 137 -6 c75 -4 324 -7 554 -7 l417 0 6 -28
c27 -132 39 -233 40 -323 1 -101 0 -108 -29 -154 -68 -110 -231 -152 -309 -80
-38 35 -34 61 9 69 66 13 125 85 125 153 0 41 -36 105 -73 131 -40 26 -122 30
-166 7 -46 -23 -99 -92 -107 -138 -11 -64 -7 -122 9 -153 24 -46 87 -101 148
-128 114 -53 218 -56 316 -9 157 73 186 245 107 625 l-6 28 261 0 c161 0 261
-4 261 -10 0 -18 64 -81 104 -103 31 -16 59 -21 111 -21 84 0 135 23 189 86
l36 42 3363 -2 c1849 -1 4225 -5 5280 -9 l1917 -6 0 26 0 27 -588 0 c-324 0
-927 3 -1340 7 l-751 6 25 26 c59 59 83 160 84 358 l0 73 1260 -7 1260 -6 0
25 0 25 -482 6 c-265 4 -832 7 -1260 7 l-778 0 0 88 c0 85 -15 284 -26 351
l-5 34 1335 -5 1336 -5 0 28 0 29 -1338 0 -1338 0 -17 123 c-10 67 -17 125
-17 129 0 3 22 -4 49 -17 129 -63 301 -96 314 -62 9 25 -20 47 -63 47 -53 0
-160 35 -261 85 -54 28 -90 40 -99 35 -14 -9 -13 -22 18 -222 l19 -118 -464 0
c-368 0 -464 3 -459 13 33 79 56 229 56 364 l0 83 1775 0 1775 0 0 25 0 25
-1775 0 -1775 0 0 58 c0 62 -25 329 -35 377 l-7 30 1746 -3 1746 -3 0 25 0 26
-1193 0 c-1459 0 -2308 9 -2312 24 -26 99 -24 95 -68 106 -146 36 -322 120
-506 240 -67 44 -126 80 -130 80 -28 0 -29 -30 -7 -165 13 -77 27 -170 31
-207 l7 -68 -1209 0 -1209 0 -22 163 c-13 89 -25 174 -28 189 l-6 28 76 -35
c135 -62 279 -85 293 -49 9 24 -23 44 -70 44 -48 0 -167 39 -250 82 -90 47
-94 48 -107 32z m2653 -178 c137 -85 249 -140 366 -180 117 -39 117 -39 123
-71 5 -25 4 -25 -63 -25 -65 0 -76 4 -196 65 -71 36 -173 96 -228 133 -91 61
-101 70 -106 105 -3 20 -4 37 -2 37 3 0 51 -29 106 -64z m8 -153 c36 -23 99
-60 140 -82 l74 -41 -141 0 -142 0 -6 58 c-4 31 -10 72 -13 91 -5 27 -3 32 8
25 8 -4 44 -27 80 -51z m-7475 -98 c17 -13 15 -14 -33 -15 -57 0 -66 5 -30 20
31 13 41 12 63 -5z m-312 -117 c-14 -100 -5 -257 22 -391 l6 -27 -297 2 -296
3 0 228 c1 125 1 229 1 232 0 3 129 5 286 5 l286 0 -8 -52z m350 -33 c-1 -102
-26 -168 -108 -289 -61 -91 -62 -91 -107 -94 -41 -3 -47 0 -53 20 -18 68 0
231 39 341 36 104 42 108 144 105 l86 -3 -1 -80z m1386 75 l616 0 27 -172 c14
-95 29 -199 33 -230 l6 -58 -1011 0 c-620 0 -1011 4 -1011 9 0 5 7 43 16 83
11 48 17 126 18 227 l1 154 344 -6 c189 -4 622 -7 961 -7z m3453 -62 c4 -35
10 -138 13 -230 l7 -168 -762 0 -762 0 -75 51 c-46 31 -83 49 -97 47 -20 -3
-22 -8 -19 -50 l3 -48 -510 0 -510 0 -6 58 c-4 31 -17 123 -29 205 -12 81 -21
147 -21 147 1 0 24 -11 52 -25 92 -44 176 -68 243 -69 56 -1 65 2 68 18 5 24
-14 36 -59 36 -44 0 -147 31 -221 65 l-53 25 1366 0 1366 0 6 -62z m2481 10
c3 -29 9 -135 13 -236 l6 -183 -1212 3 -1213 3 -4 135 c-2 74 -6 179 -9 233
l-7 97 1210 0 1209 0 7 -52z m514 27 c39 -14 78 -25 86 -25 8 0 18 -5 21 -11
10 -15 35 -262 35 -341 l0 -68 -288 0 -289 0 -7 168 c-3 92 -9 197 -13 235
l-6 67 195 0 c182 0 199 -2 266 -25z m-8143 -525 c7 -40 6 -42 -82 -136 -104
-111 -233 -265 -233 -276 0 -4 -56 -8 -125 -8 l-125 0 0 -25 0 -25 104 0 103
0 -38 -77 c-49 -100 -74 -221 -65 -320 l6 -74 -75 3 -75 3 -3 488 -2 487 302
0 301 0 7 -40z m85 36 c0 -2 -7 -9 -15 -16 -12 -10 -15 -10 -15 4 0 9 7 16 15
16 8 0 15 -2 15 -4z m2303 -93 c4 -54 7 -157 7 -229 l0 -131 -554 -2 -554 -2
-6 38 c-4 21 -9 46 -12 55 -4 15 5 13 61 -12 158 -71 296 -91 303 -44 3 24
-19 34 -76 34 -44 0 -140 33 -236 81 -81 41 -112 47 -118 27 -3 -7 1 -44 8
-82 7 -39 13 -77 13 -83 1 -10 -114 -13 -543 -13 l-544 0 -11 50 c-16 74 -15
76 38 138 59 69 123 166 148 227 l18 45 1026 0 1026 0 6 -97z m1088 52 c8 -44
34 -255 44 -352 l7 -63 -536 0 -536 0 0 108 c0 60 -3 164 -7 231 l-6 121 514
-2 513 -3 7 -40z m219 -5 c117 -67 222 -115 327 -149 l87 -28 13 -49 c6 -27
11 -50 9 -51 -8 -8 -192 64 -282 111 -127 66 -326 195 -318 207 14 24 79 7
164 -41z m1130 41 c0 -2 -12 -12 -26 -24 -62 -49 -82 -160 -41 -236 46 -87
166 -138 265 -113 121 32 169 100 185 263 l11 109 1053 0 1053 0 -39 -36
c-138 -124 -57 -334 136 -351 77 -7 136 10 185 55 60 54 79 106 86 229 l5 103
293 0 294 0 0 -92 c0 -51 -5 -130 -12 -176 l-11 -84 -24 31 c-55 70 -169 106
-259 82 -91 -24 -163 -108 -164 -188 l0 -33 -814 0 -814 0 -6 28 c-3 15 -12
79 -21 142 -9 63 -18 123 -21 133 -5 15 2 14 53 -9 101 -45 166 -65 235 -71
57 -5 69 -3 74 11 10 27 -15 46 -61 46 -55 0 -150 31 -259 86 -123 62 -123 61
-92 -126 13 -80 27 -166 31 -192 l6 -48 -699 0 c-384 0 -814 3 -956 7 -249 6
-257 7 -261 27 -2 12 -13 71 -25 131 -12 61 -26 115 -33 121 -7 6 -52 24 -102
39 -102 31 -305 123 -305 138 0 7 184 9 540 6 297 -2 540 -6 540 -8z m330 -23
c0 -18 -1 -18 -25 -1 -31 23 -31 31 0 25 16 -3 25 -11 25 -24z m2490 -3 c0
-31 -7 -31 -45 0 l-30 25 38 0 c33 0 37 -3 37 -25z m-3796 -246 c66 -33 158
-71 205 -85 47 -15 87 -27 87 -28 1 0 5 -16 9 -33 l7 -33 -286 0 c-157 0 -286
1 -286 3 -1 21 -31 284 -36 315 l-7 43 94 -61 c52 -35 148 -89 213 -121z
m-3775 -161 c1 -15 -8 -18 -51 -18 l-53 1 45 39 c44 39 45 39 52 17 3 -12 6
-30 7 -39z m22 -108 c20 -107 24 -96 -35 -129 -95 -55 -177 -165 -192 -260
l-7 -41 -97 0 -98 0 5 48 c12 128 68 241 178 360 l58 63 90 -3 91 -3 7 -35z
m1143 13 c5 -27 28 -231 41 -375 l7 -68 -336 0 -335 0 -7 38 c-12 67 -61 160
-111 210 -73 72 -129 96 -240 100 l-91 4 -7 45 c-4 25 -9 52 -12 59 -4 12 82
14 540 14 l545 0 6 -27z m786 18 c0 -6 -5 -13 -11 -17 -19 -11 -49 -87 -49
-124 0 -83 70 -167 162 -195 64 -19 82 -19 146 0 108 32 159 109 170 253 l7
87 536 3 536 2 7 -52 c7 -53 6 -348 -1 -348 -2 0 -14 9 -26 21 -39 37 -80 52
-152 57 -62 3 -76 1 -125 -25 -39 -20 -64 -42 -85 -75 l-30 -47 -882 0 -882
-1 -5 33 c-2 17 -12 111 -21 207 -9 96 -19 187 -22 203 l-5 27 366 0 c222 0
366 -4 366 -9z m365 -1 c3 -5 1 -10 -4 -10 -6 0 -11 5 -11 10 0 6 2 10 4 10 3
0 8 -4 11 -10z m1770 -1 c4 -6 10 -114 13 -240 l5 -229 -295 0 -294 0 0 240 1
240 282 0 c191 0 284 -3 288 -11z m1979 -84 c3 -47 9 -153 13 -235 l6 -150
-961 0 -962 0 -1 153 c0 83 -4 189 -7 235 -4 46 -7 84 -6 85 1 1 432 1 957 -1
l954 -2 7 -85z m1707 48 c13 -21 46 -51 73 -68 44 -27 58 -30 126 -30 68 0 82
3 126 30 27 17 60 47 73 68 l24 37 473 0 474 0 4 -22 c10 -45 26 -268 26 -357
l0 -91 -1514 0 -1513 0 -8 163 c-4 89 -10 195 -14 235 l-7 72 816 0 817 0 24
-37z m-7515 -304 c36 -22 104 -94 104 -109 0 -7 -35 -10 -97 -8 l-97 3 -13 60
c-18 90 -19 89 29 81 23 -4 56 -16 74 -27z m-167 -36 c17 -88 21 -83 -75 -83
l-85 0 23 42 c19 35 96 98 119 98 3 0 11 -26 18 -57z m-594 -185 c61 -190 171
-317 331 -383 l59 -25 -283 3 -283 2 0 223 c0 122 1 224 1 227 0 3 35 5 79 5
l79 0 17 -52z m304 10 c17 -57 50 -105 104 -155 45 -42 125 -89 134 -79 3 3
-13 26 -35 53 -52 61 -82 127 -82 181 l0 42 94 0 c52 0 97 -3 99 -7 3 -5 19
-84 37 -178 17 -93 33 -178 36 -187 12 -40 -179 -50 -292 -14 -77 24 -168 89
-214 154 -39 55 -80 160 -80 208 0 24 2 24 93 24 l94 0 12 -42z m595 11 c17
-86 1 -170 -46 -239 -30 -45 -85 -96 -93 -88 -4 4 -75 339 -75 353 0 3 47 5
104 5 l104 0 6 -31z m816 -124 c0 -85 -2 -155 -5 -155 -3 0 -17 10 -31 23 -63
59 -186 72 -271 28 -70 -35 -123 -114 -123 -183 0 -17 -19 -18 -255 -18 -277
0 -298 5 -210 48 125 60 216 201 229 354 3 29 5 54 6 56 0 1 149 2 330 2 l330
0 0 -155z m1829 97 c34 -99 115 -155 226 -156 109 0 198 64 225 160 l13 44
299 0 300 0 -6 -27 c-3 -16 -8 -52 -11 -80 -4 -29 -9 -53 -11 -53 -3 0 -19 16
-37 37 -17 20 -50 44 -72 54 -54 25 -157 25 -210 0 -47 -22 -99 -74 -114 -114
-13 -35 -14 -107 -2 -140 14 -36 69 -95 110 -118 l36 -20 -610 6 c-335 3 -906
5 -1269 5 l-658 0 6 23 c4 12 9 116 13 230 l6 208 874 -3 874 -3 18 -53z
m3041 36 c0 -7 -3 -30 -7 -51 l-6 -38 -26 24 c-43 40 -112 61 -181 54 -184
-16 -272 -203 -157 -333 94 -109 278 -105 369 7 36 44 58 143 58 262 l0 87
1520 0 1520 0 0 -81 0 -80 -35 27 c-173 131 -426 1 -384 -197 8 -35 22 -62 48
-90 l38 -39 -2451 0 c-2426 1 -2451 1 -2415 20 21 11 52 37 71 59 44 52 98
209 105 308 l6 73 963 0 c765 0 964 -3 964 -12z"/>
</g>
</svg>
