<?xml version="1.0" standalone="no"?>
<!DOCTYPE svg PUBLIC "-//W3C//DTD SVG 20010904//EN"
 "http://www.w3.org/TR/2001/REC-SVG-20010904/DTD/svg10.dtd">
<svg version="1.0" xmlns="http://www.w3.org/2000/svg"
 width="1024.000000pt" height="1280.000000pt" viewBox="0 0 1024.000000 1280.000000"
 preserveAspectRatio="xMidYMid meet">
<metadata>
Created by potrace 1.15, written by Peter Selinger 2001-2017
</metadata>
<g transform="translate(0.000000,1280.000000) scale(0.100000,-0.100000)"
fill="#000000" stroke="none">
<path d="M550 12791 c-80 -25 -129 -72 -150 -145 l-13 -46 89 -93 c49 -50 569
-589 1156 -1197 l1067 -1105 655 -610 c360 -335 655 -613 655 -617 1 -5 -16
-8 -36 -8 -57 0 -335 -36 -543 -71 -734 -122 -1318 -337 -1577 -582 l-52 -49
-41 16 c-48 19 -127 21 -182 4 -45 -13 -117 -73 -147 -122 -30 -47 -41 -120
-30 -183 10 -51 8 -57 -102 -355 -569 -1548 -914 -2668 -1128 -3668 -88 -413
-171 -911 -171 -1032 0 -419 424 -928 1165 -1398 904 -574 2209 -1070 3485
-1324 476 -95 844 -146 1355 -188 201 -17 958 -17 1130 0 742 72 1246 203
1712 447 670 350 1096 887 1268 1600 67 275 79 399 80 775 0 223 -4 365 -13
425 -75 523 -434 1540 -1391 3940 l-291 731 6 65 c19 195 -150 338 -341 290
l-46 -12 -72 60 c-288 236 -804 429 -1451 542 -99 17 -189 34 -198 38 -12 4
145 90 503 276 l522 270 1406 846 1406 846 -1 60 c0 39 -7 70 -20 92 -23 39
-102 94 -126 88 -9 -3 -653 -357 -1430 -787 l-1413 -783 -675 -421 c-598 -373
-680 -421 -715 -421 -22 0 -132 7 -245 15 -222 16 -1039 21 -1186 7 l-82 -7
-692 757 c-430 470 -767 830 -889 948 -981 950 -2172 2095 -2179 2094 -4 0
-18 -4 -32 -8z m7874 -4988 c3 -10 320 -1071 706 -2358 386 -1287 715 -2394
731 -2460 50 -207 64 -320 64 -540 0 -228 -15 -333 -71 -503 -224 -685 -926
-1123 -2062 -1287 -355 -51 -581 -65 -1037 -65 -524 0 -1076 40 -1520 110 -33
5 -121 19 -195 30 -1145 178 -2344 543 -3200 976 -457 230 -776 448 -1030 703
-271 272 -381 477 -397 741 -10 166 20 547 68 855 82 540 220 1053 597 2220
212 657 331 1059 412 1397 l43 177 26 -13 c14 -7 43 -16 63 -20 l38 -7 2
-2057 3 -2057 23 -65 c81 -226 286 -419 632 -595 346 -176 822 -319 1325 -399
55 -9 114 -19 130 -22 101 -17 288 -37 605 -66 184 -16 970 -16 1165 0 173 15
417 39 460 46 17 3 68 10 115 17 130 17 350 57 495 89 886 199 1458 520 1613
906 l27 69 5 2069 5 2069 47 12 c25 6 57 19 70 28 30 21 36 21 42 0z"/>
</g>
</svg>
